<mxfile host="Electron" agent="Mozilla/5.0 (Windows NT 10.0; Win64; x64) AppleWebKit/537.36 (KHTML, like Gecko) draw.io/24.7.17 Chrome/128.0.6613.36 Electron/32.0.1 Safari/537.36" version="24.7.17">
  <diagram name="Page-1" id="1Ea9J2FBNifhpVIg0XZY">
    <mxGraphModel dx="768" dy="458" grid="1" gridSize="10" guides="1" tooltips="1" connect="1" arrows="1" fold="1" page="1" pageScale="1" pageWidth="850" pageHeight="1100" math="0" shadow="0">
      <root>
        <mxCell id="0" />
        <mxCell id="1" parent="0" />
        <mxCell id="iT15qdXA6bIswRw0svQ7-4" value="" style="edgeStyle=orthogonalEdgeStyle;rounded=0;orthogonalLoop=1;jettySize=auto;html=1;" edge="1" parent="1" source="iT15qdXA6bIswRw0svQ7-2" target="iT15qdXA6bIswRw0svQ7-3">
          <mxGeometry relative="1" as="geometry" />
        </mxCell>
        <mxCell id="iT15qdXA6bIswRw0svQ7-2" value="START" style="rounded=1;whiteSpace=wrap;html=1;arcSize=50;" vertex="1" parent="1">
          <mxGeometry x="400" y="30" width="80" height="40" as="geometry" />
        </mxCell>
        <mxCell id="iT15qdXA6bIswRw0svQ7-6" value="" style="edgeStyle=orthogonalEdgeStyle;rounded=0;orthogonalLoop=1;jettySize=auto;html=1;entryX=0.5;entryY=0;entryDx=0;entryDy=0;" edge="1" parent="1" source="iT15qdXA6bIswRw0svQ7-3" target="iT15qdXA6bIswRw0svQ7-7">
          <mxGeometry relative="1" as="geometry">
            <mxPoint x="440" y="160" as="targetPoint" />
          </mxGeometry>
        </mxCell>
        <mxCell id="iT15qdXA6bIswRw0svQ7-3" value="&quot;Input 1 :&quot;&lt;div&gt;ใส่ค่าลงใน In1&lt;/div&gt;" style="rounded=0;whiteSpace=wrap;html=1;" vertex="1" parent="1">
          <mxGeometry x="387.5" y="100" width="105" height="30" as="geometry" />
        </mxCell>
        <mxCell id="iT15qdXA6bIswRw0svQ7-9" value="" style="edgeStyle=orthogonalEdgeStyle;rounded=0;orthogonalLoop=1;jettySize=auto;html=1;" edge="1" parent="1" source="iT15qdXA6bIswRw0svQ7-7" target="iT15qdXA6bIswRw0svQ7-8">
          <mxGeometry relative="1" as="geometry" />
        </mxCell>
        <mxCell id="iT15qdXA6bIswRw0svQ7-7" value="&quot;Input 2 :&quot;&lt;div&gt;ใส่ค่าลงใน In2&lt;/div&gt;" style="rounded=0;whiteSpace=wrap;html=1;" vertex="1" parent="1">
          <mxGeometry x="387.5" y="170" width="105" height="30" as="geometry" />
        </mxCell>
        <mxCell id="iT15qdXA6bIswRw0svQ7-11" value="" style="edgeStyle=orthogonalEdgeStyle;rounded=0;orthogonalLoop=1;jettySize=auto;html=1;" edge="1" parent="1" source="iT15qdXA6bIswRw0svQ7-8" target="iT15qdXA6bIswRw0svQ7-12">
          <mxGeometry relative="1" as="geometry">
            <mxPoint x="540" y="280" as="targetPoint" />
          </mxGeometry>
        </mxCell>
        <mxCell id="iT15qdXA6bIswRw0svQ7-17" value="" style="edgeStyle=orthogonalEdgeStyle;rounded=0;orthogonalLoop=1;jettySize=auto;html=1;" edge="1" parent="1" source="iT15qdXA6bIswRw0svQ7-8" target="iT15qdXA6bIswRw0svQ7-14">
          <mxGeometry relative="1" as="geometry" />
        </mxCell>
        <mxCell id="iT15qdXA6bIswRw0svQ7-8" value="ถ้า in1 &amp;lt; in2&amp;nbsp;" style="rhombus;whiteSpace=wrap;html=1;rounded=0;" vertex="1" parent="1">
          <mxGeometry x="395" y="240" width="90" height="80" as="geometry" />
        </mxCell>
        <mxCell id="iT15qdXA6bIswRw0svQ7-28" value="" style="edgeStyle=orthogonalEdgeStyle;rounded=0;orthogonalLoop=1;jettySize=auto;html=1;" edge="1" parent="1" source="iT15qdXA6bIswRw0svQ7-12" target="iT15qdXA6bIswRw0svQ7-27">
          <mxGeometry relative="1" as="geometry" />
        </mxCell>
        <mxCell id="iT15qdXA6bIswRw0svQ7-12" value="แสดง &quot;Number 1 lower than Number 2&quot;" style="shape=parallelogram;perimeter=parallelogramPerimeter;whiteSpace=wrap;html=1;fixedSize=1;" vertex="1" parent="1">
          <mxGeometry x="110" y="265" width="250" height="30" as="geometry" />
        </mxCell>
        <mxCell id="iT15qdXA6bIswRw0svQ7-19" value="" style="edgeStyle=orthogonalEdgeStyle;rounded=0;orthogonalLoop=1;jettySize=auto;html=1;" edge="1" parent="1" source="iT15qdXA6bIswRw0svQ7-14" target="iT15qdXA6bIswRw0svQ7-18">
          <mxGeometry relative="1" as="geometry" />
        </mxCell>
        <mxCell id="iT15qdXA6bIswRw0svQ7-26" value="" style="edgeStyle=orthogonalEdgeStyle;rounded=0;orthogonalLoop=1;jettySize=auto;html=1;" edge="1" parent="1" source="iT15qdXA6bIswRw0svQ7-14" target="iT15qdXA6bIswRw0svQ7-20">
          <mxGeometry relative="1" as="geometry" />
        </mxCell>
        <mxCell id="iT15qdXA6bIswRw0svQ7-14" value="ถ้า in1 &amp;gt;&lt;span style=&quot;color: rgba(0, 0, 0, 0); font-family: monospace; font-size: 0px; text-align: start; text-wrap: nowrap;&quot;&gt;%3CmxGraphModel%3E%3Croot%3E%3CmxCell%20id%3D%220%22%2F%3E%3CmxCell%20id%3D%221%22%20parent%3D%220%22%2F%3E%3CmxCell%20id%3D%222%22%20value%3D%22%E0%B8%96%E0%B9%89%E0%B8%B2%20in1%20%26amp%3Blt%3B%20in2%26amp%3Bnbsp%3B%22%20style%3D%22rhombus%3BwhiteSpace%3Dwrap%3Bhtml%3D1%3Brounded%3D0%3B%22%20vertex%3D%221%22%20parent%3D%221%22%3E%3CmxGeometry%20x%3D%22395%22%20y%3D%22240%22%20width%3D%2290%22%20height%3D%2280%22%20as%3D%22geometry%22%2F%3E%3C%2FmxCell%3E%3C%2Froot%3E%3C%2FmxGraphModel%3E&lt;/span&gt;&amp;nbsp;in2&amp;nbsp;" style="rhombus;whiteSpace=wrap;html=1;rounded=0;" vertex="1" parent="1">
          <mxGeometry x="395" y="370" width="90" height="80" as="geometry" />
        </mxCell>
        <mxCell id="iT15qdXA6bIswRw0svQ7-29" value="" style="edgeStyle=orthogonalEdgeStyle;rounded=0;orthogonalLoop=1;jettySize=auto;html=1;" edge="1" parent="1" source="iT15qdXA6bIswRw0svQ7-18" target="iT15qdXA6bIswRw0svQ7-27">
          <mxGeometry relative="1" as="geometry" />
        </mxCell>
        <mxCell id="iT15qdXA6bIswRw0svQ7-18" value="แสดง &quot;Number1 greater than Number2&quot;" style="shape=parallelogram;perimeter=parallelogramPerimeter;whiteSpace=wrap;html=1;fixedSize=1;rounded=0;" vertex="1" parent="1">
          <mxGeometry x="110" y="395" width="250" height="30" as="geometry" />
        </mxCell>
        <mxCell id="iT15qdXA6bIswRw0svQ7-35" value="" style="edgeStyle=orthogonalEdgeStyle;rounded=0;orthogonalLoop=1;jettySize=auto;html=1;" edge="1" parent="1" source="iT15qdXA6bIswRw0svQ7-20" target="iT15qdXA6bIswRw0svQ7-34">
          <mxGeometry relative="1" as="geometry" />
        </mxCell>
        <mxCell id="iT15qdXA6bIswRw0svQ7-20" value="แสดง &quot;Number1 equal Number2&quot;" style="shape=parallelogram;perimeter=parallelogramPerimeter;whiteSpace=wrap;html=1;fixedSize=1;rounded=0;" vertex="1" parent="1">
          <mxGeometry x="325" y="500" width="230" height="30" as="geometry" />
        </mxCell>
        <mxCell id="iT15qdXA6bIswRw0svQ7-24" value="END" style="rounded=1;whiteSpace=wrap;html=1;arcSize=50;" vertex="1" parent="1">
          <mxGeometry x="400" y="620" width="80" height="40" as="geometry" />
        </mxCell>
        <mxCell id="iT15qdXA6bIswRw0svQ7-37" style="edgeStyle=orthogonalEdgeStyle;rounded=0;orthogonalLoop=1;jettySize=auto;html=1;entryX=0;entryY=0.5;entryDx=0;entryDy=0;" edge="1" parent="1" source="iT15qdXA6bIswRw0svQ7-27" target="iT15qdXA6bIswRw0svQ7-34">
          <mxGeometry relative="1" as="geometry">
            <Array as="points">
              <mxPoint x="65" y="575" />
            </Array>
          </mxGeometry>
        </mxCell>
        <mxCell id="iT15qdXA6bIswRw0svQ7-27" value="" style="ellipse;whiteSpace=wrap;html=1;" vertex="1" parent="1">
          <mxGeometry x="50" y="395" width="30" height="30" as="geometry" />
        </mxCell>
        <mxCell id="iT15qdXA6bIswRw0svQ7-36" value="" style="edgeStyle=orthogonalEdgeStyle;rounded=0;orthogonalLoop=1;jettySize=auto;html=1;" edge="1" parent="1" source="iT15qdXA6bIswRw0svQ7-34" target="iT15qdXA6bIswRw0svQ7-24">
          <mxGeometry relative="1" as="geometry" />
        </mxCell>
        <mxCell id="iT15qdXA6bIswRw0svQ7-34" value="" style="ellipse;whiteSpace=wrap;html=1;" vertex="1" parent="1">
          <mxGeometry x="425" y="560" width="30" height="30" as="geometry" />
        </mxCell>
      </root>
    </mxGraphModel>
  </diagram>
</mxfile>
